<svg id="visual" viewBox="0 0 900 600" width="900" height="600" xmlns="http://www.w3.org/2000/svg" xmlns:xlink="http://www.w3.org/1999/xlink" version="1.1"><path d="M0 79L13.7 74C27.3 69 54.7 59 82 66C109.3 73 136.7 97 163.8 96C191 95 218 69 245.2 65C272.3 61 299.7 79 327 82C354.3 85 381.7 73 409 64C436.3 55 463.7 49 491 57C518.3 65 545.7 87 573 96C600.3 105 627.7 101 654.8 96C682 91 709 85 736.2 89C763.3 93 790.7 107 818 114C845.3 121 872.7 121 886.3 121L900 121L900 0L886.3 0C872.7 0 845.3 0 818 0C790.7 0 763.3 0 736.2 0C709 0 682 0 654.8 0C627.7 0 600.3 0 573 0C545.7 0 518.3 0 491 0C463.7 0 436.3 0 409 0C381.7 0 354.3 0 327 0C299.7 0 272.3 0 245.2 0C218 0 191 0 163.8 0C136.7 0 109.3 0 82 0C54.7 0 27.3 0 13.7 0L0 0Z" fill="#6198ff"></path><path d="M0 331L13.7 301C27.3 271 54.7 211 82 214C109.3 217 136.7 283 163.8 291C191 299 218 249 245.2 227C272.3 205 299.7 211 327 207C354.3 203 381.7 189 409 184C436.3 179 463.7 183 491 205C518.3 227 545.7 267 573 281C600.3 295 627.7 283 654.8 283C682 283 709 295 736.2 287C763.3 279 790.7 251 818 246C845.3 241 872.7 259 886.3 268L900 277L900 119L886.3 119C872.7 119 845.3 119 818 112C790.7 105 763.3 91 736.2 87C709 83 682 89 654.8 94C627.7 99 600.3 103 573 94C545.7 85 518.3 63 491 55C463.7 47 436.3 53 409 62C381.7 71 354.3 83 327 80C299.7 77 272.3 59 245.2 63C218 67 191 93 163.8 94C136.7 95 109.3 71 82 64C54.7 57 27.3 67 13.7 72L0 77Z" fill="#3c80ff"></path><path d="M0 439L13.7 432C27.3 425 54.7 411 82 416C109.3 421 136.7 445 163.8 453C191 461 218 453 245.2 437C272.3 421 299.7 397 327 394C354.3 391 381.7 409 409 405C436.3 401 463.7 375 491 369C518.3 363 545.7 377 573 380C600.3 383 627.7 375 654.8 377C682 379 709 391 736.2 401C763.3 411 790.7 419 818 419C845.3 419 872.7 411 886.3 407L900 403L900 275L886.3 266C872.7 257 845.3 239 818 244C790.7 249 763.3 277 736.2 285C709 293 682 281 654.8 281C627.7 281 600.3 293 573 279C545.7 265 518.3 225 491 203C463.7 181 436.3 177 409 182C381.7 187 354.3 201 327 205C299.7 209 272.3 203 245.2 225C218 247 191 297 163.8 289C136.7 281 109.3 215 82 212C54.7 209 27.3 269 13.7 299L0 329Z" fill="#0066ff"></path><path d="M0 505L13.7 506C27.3 507 54.7 509 82 514C109.3 519 136.7 527 163.8 525C191 523 218 511 245.2 505C272.3 499 299.7 499 327 507C354.3 515 381.7 531 409 533C436.3 535 463.7 523 491 518C518.3 513 545.7 515 573 513C600.3 511 627.7 505 654.8 511C682 517 709 535 736.2 544C763.3 553 790.7 553 818 545C845.3 537 872.7 521 886.3 513L900 505L900 401L886.3 405C872.7 409 845.3 417 818 417C790.7 417 763.3 409 736.2 399C709 389 682 377 654.8 375C627.7 373 600.3 381 573 378C545.7 375 518.3 361 491 367C463.7 373 436.3 399 409 403C381.7 407 354.3 389 327 392C299.7 395 272.3 419 245.2 435C218 451 191 459 163.8 451C136.7 443 109.3 419 82 414C54.7 409 27.3 423 13.7 430L0 437Z" fill="#0059dd"></path><path d="M0 601L13.7 601C27.3 601 54.7 601 82 601C109.3 601 136.7 601 163.8 601C191 601 218 601 245.2 601C272.3 601 299.7 601 327 601C354.3 601 381.7 601 409 601C436.3 601 463.7 601 491 601C518.3 601 545.7 601 573 601C600.3 601 627.7 601 654.8 601C682 601 709 601 736.2 601C763.3 601 790.7 601 818 601C845.3 601 872.7 601 886.3 601L900 601L900 503L886.3 511C872.7 519 845.3 535 818 543C790.7 551 763.3 551 736.2 542C709 533 682 515 654.8 509C627.7 503 600.3 509 573 511C545.7 513 518.3 511 491 516C463.7 521 436.3 533 409 531C381.7 529 354.3 513 327 505C299.7 497 272.3 497 245.2 503C218 509 191 521 163.8 523C136.7 525 109.3 517 82 512C54.7 507 27.3 505 13.7 504L0 503Z" fill="#004cbb"></path></svg>