<?xml version="1.0" standalone="no"?>
<!DOCTYPE svg PUBLIC "-//W3C//DTD SVG 20010904//EN"
 "http://www.w3.org/TR/2001/REC-SVG-20010904/DTD/svg10.dtd">
<svg version="1.0" xmlns="http://www.w3.org/2000/svg"
 width="500.000000pt" height="500.000000pt" viewBox="0 0 500.000000 500.000000"
 preserveAspectRatio="xMidYMid meet">
<metadata>
Created by potrace 1.14, written by Peter Selinger 2001-2017
</metadata>
<g transform="translate(0.000000,500.000000) scale(0.100000,-0.100000)"
fill="#000000" stroke="none">
<path d="M0 2500 l0 -2500 2500 0 2500 0 0 2500 0 2500 -2500 0 -2500 0 0
-2500z m3141 1278 c-156 -290 -381 -712 -381 -715 0 -1 117 -3 260 -3 143 0
260 -2 260 -4 0 -6 -1240 -1878 -1252 -1891 -6 -6 -7 -5 -4 5 10 29 326 1362
326 1376 0 12 -54 14 -321 14 -302 0 -321 1 -314 18 3 9 105 292 225 627 120
336 223 623 229 638 l11 27 505 0 506 0 -50 -92z m-1601 -52 l0 -74 -102 -4
c-174 -7 -239 -55 -258 -189 -5 -35 -10 -209 -10 -386 0 -301 -1 -326 -21
-378 -26 -70 -104 -157 -163 -181 l-43 -18 46 -22 c56 -25 125 -98 154 -162
21 -45 22 -65 27 -422 5 -329 8 -380 23 -415 41 -92 109 -125 259 -125 l88 0
0 -81 0 -82 -117 6 c-111 5 -122 8 -192 44 -88 45 -146 109 -182 200 -22 56
-23 72 -28 450 l-6 391 -30 43 c-36 50 -83 77 -165 92 l-60 12 0 72 0 72 38 6
c121 21 164 47 197 118 25 52 25 53 25 387 0 184 5 364 10 400 24 150 119 260
265 306 22 7 86 13 143 13 l102 1 0 -74z m2164 19 c108 -33 182 -95 228 -192
42 -89 48 -148 48 -518 0 -364 3 -380 66 -439 32 -29 109 -56 161 -56 l33 0 0
-80 0 -80 -28 0 c-47 0 -129 -29 -162 -56 -65 -55 -64 -50 -71 -479 -5 -375
-6 -392 -28 -448 -43 -109 -127 -193 -224 -223 -29 -8 -100 -18 -159 -21
l-108 -6 0 82 0 81 93 0 c111 0 157 12 201 51 68 59 69 71 76 494 l5 380 28
54 c34 64 105 135 152 153 19 6 35 15 35 18 0 3 -17 12 -37 19 -47 17 -123 95
-154 158 -24 47 -24 53 -30 423 -6 410 -7 419 -66 481 -44 47 -88 59 -207 59
l-96 0 0 80 0 80 98 0 c57 0 117 -6 146 -15z"/>
</g>
</svg>
