<?xml version="1.0" standalone="no"?>
<!DOCTYPE svg PUBLIC "-//W3C//DTD SVG 20010904//EN"
 "http://www.w3.org/TR/2001/REC-SVG-20010904/DTD/svg10.dtd">
<svg version="1.0" xmlns="http://www.w3.org/2000/svg"
 width="500.000000pt" height="500.000000pt" viewBox="0 0 500.000000 500.000000"
 preserveAspectRatio="xMidYMid meet">
<metadata>
Created by potrace 1.14, written by Peter Selinger 2001-2017
</metadata>
<g transform="translate(0.000000,500.000000) scale(0.100000,-0.100000)"
fill="#000000" stroke="none">
<path d="M0 2500 l0 -2500 2500 0 2500 0 0 2500 0 2500 -2500 0 -2500 0 0
-2500z m1558 1120 c14 -78 37 -125 76 -153 29 -21 45 -22 241 -28 229 -6 257
-12 313 -68 59 -60 87 -152 98 -321 l7 -100 -136 0 -137 0 0 33 c0 53 -19 105
-47 127 -24 18 -40 20 -197 20 -94 0 -188 5 -208 10 -73 21 -130 92 -144 179
-8 51 -20 53 -29 4 -10 -54 -51 -128 -82 -151 -52 -36 -92 -42 -267 -42 -142
0 -176 -3 -195 -16 -30 -21 -51 -72 -51 -124 l0 -40 -135 0 -135 0 0 73 c1
169 49 314 122 367 55 40 115 50 303 50 91 0 176 5 192 11 65 24 113 108 113
196 l0 33 144 0 144 0 10 -60z m2230 0 c14 -78 37 -125 76 -153 29 -21 45 -22
241 -28 229 -6 257 -12 313 -68 59 -60 87 -152 98 -321 l7 -100 -136 0 -137 0
0 33 c0 53 -19 105 -47 127 -24 18 -40 20 -197 20 -94 0 -188 5 -208 10 -73
21 -130 92 -144 179 -8 51 -20 53 -29 4 -10 -54 -51 -128 -82 -151 -52 -36
-92 -42 -267 -42 -142 0 -176 -3 -195 -16 -30 -21 -51 -72 -51 -124 l0 -40
-135 0 -135 0 0 73 c1 169 49 314 122 367 55 40 115 50 303 50 91 0 176 5 192
11 65 24 113 108 113 196 l0 33 144 0 144 0 10 -60z m-2237 -755 c216 -28 353
-88 470 -204 43 -43 88 -99 103 -129 22 -43 30 -52 49 -48 12 3 39 8 59 11 21
3 62 24 95 49 73 54 115 76 148 76 37 0 92 -25 139 -64 54 -44 77 -55 133 -65
51 -10 73 -6 73 14 0 24 99 151 151 193 165 134 438 199 720 173 231 -21 378
-74 489 -176 82 -75 126 -95 218 -95 l72 0 0 -105 0 -105 -39 -19 c-21 -11
-50 -34 -64 -50 -26 -31 -28 -38 -47 -150 -24 -135 -104 -311 -189 -417 -89
-110 -222 -194 -361 -230 -51 -13 -96 -15 -225 -11 -187 6 -249 19 -385 84
-130 62 -238 168 -298 293 -43 87 -92 251 -92 306 0 19 -8 38 -21 50 -12 10
-49 52 -82 93 -140 171 -225 173 -368 9 -39 -46 -80 -90 -90 -98 -12 -10 -21
-41 -29 -95 -27 -180 -94 -320 -210 -435 -88 -87 -172 -136 -305 -176 -121
-36 -382 -46 -485 -19 -275 72 -476 312 -541 647 -26 136 -43 165 -116 202
l-33 17 0 104 0 105 70 0 c89 0 126 15 203 86 169 152 473 221 788 179z"/>
<path d="M1267 2800 c-267 -32 -437 -141 -506 -325 -29 -78 -42 -204 -30 -299
35 -282 275 -534 559 -588 68 -13 225 -4 305 18 139 37 276 127 356 234 43 57
99 164 99 190 0 8 7 33 15 56 41 118 27 294 -32 412 -110 220 -419 342 -766
302z m208 -417 c-4 -32 -9 -66 -11 -75 -7 -23 14 -23 93 1 35 11 65 16 67 13
2 -4 7 -35 11 -69 l7 -63 -40 0 c-22 0 -53 -3 -70 -6 l-31 -6 46 -60 c51 -66
52 -61 -28 -103 l-46 -24 -28 60 c-16 32 -32 59 -36 59 -4 0 -17 -25 -29 -55
-12 -30 -26 -55 -31 -55 -9 0 -108 47 -117 55 -2 2 15 29 39 60 50 66 45 75
-39 75 l-53 0 6 58 c11 83 11 83 80 61 70 -22 96 -24 90 -6 -2 6 -6 40 -10 75
l-6 62 71 0 71 0 -6 -57z"/>
<path d="M3421 2798 c-170 -21 -324 -92 -424 -194 -149 -152 -169 -420 -51
-663 95 -193 270 -315 504 -352 152 -23 307 6 438 83 32 18 95 71 142 118 138
137 200 284 200 470 0 167 -48 289 -152 385 -96 89 -215 135 -399 155 -109 11
-156 11 -258 -2z m204 -433 c-8 -87 -12 -84 84 -55 36 11 66 18 67 17 2 -2 6
-32 10 -69 l6 -65 -61 -5 c-33 -2 -63 -7 -67 -10 -3 -4 13 -31 35 -61 23 -29
41 -57 41 -60 0 -8 -95 -57 -110 -57 -6 0 -22 25 -37 55 -15 30 -30 55 -33 55
-3 0 -16 -25 -29 -55 -13 -30 -29 -55 -35 -55 -6 1 -35 13 -64 28 l-53 28 45
59 c51 69 49 73 -42 74 l-53 1 7 47 c4 26 10 57 13 69 l6 21 78 -22 79 -23 -7
51 c-3 29 -8 64 -11 80 l-6 27 72 0 72 0 -7 -75z"/>
<path d="M524 2506 c-3 -8 -4 -23 -2 -33 5 -25 51 -25 56 0 7 36 -42 65 -54
33z"/>
<path d="M4385 2504 c-18 -18 -16 -33 7 -47 35 -22 66 21 36 51 -16 16 -23 15
-43 -4z"/>
<path d="M630 2475 c0 -31 26 -43 47 -22 21 21 9 47 -22 47 -20 0 -25 -5 -25
-25z"/>
<path d="M4274 2486 c-10 -26 4 -48 28 -44 17 2 23 10 23 28 0 18 -6 26 -23
28 -13 2 -25 -3 -28 -12z"/>
</g>
</svg>
