<svg version="1.1" id="Layer_1" xmlns="http://www.w3.org/2000/svg" xmlns:xlink="http://www.w3.org/1999/xlink" x="0px" y="0px" viewBox="0 0 469.487 469.487" style="enable-background:new 0 0 469.487 469.487;" xml:space="preserve">
<path style="fill:#FFFFFF;" d="M157.421,458.82h-50.677c-11.787,0-21.333-9.547-21.333-21.333v-160h74.667l18.528,157.504  C180.098,447.674,170.189,458.82,157.421,458.82z"/>
<g>
	<polygon style="fill:#D94452;" points="202.743,352.154 170.743,352.154 160.077,277.487 213.41,288.154  "/>
	<path style="fill:#D94452;" d="M234.743,288.154L72.247,269.039c-10.741-1.269-18.837-10.368-18.837-21.184V115.119   c0-10.816,8.096-19.925,18.837-21.184L234.743,74.82V288.154z"/>
	<path style="fill:#D94452;" d="M53.41,224.154L53.41,224.154c-23.563,0-42.667-19.104-42.667-42.667l0,0   c0-23.563,19.104-42.667,42.667-42.667l0,0V224.154z"/>
	<path style="fill:#D94452;" d="M416.077,224.154L416.077,224.154V138.82l0,0c23.563,0,42.667,19.104,42.667,42.667l0,0   C458.743,205.049,439.639,224.154,416.077,224.154z"/>
</g>
<path style="fill:#FFFFFF;" d="M385.655,359.172l-150.912-71.019V74.82l151.872-62.539c14.048-5.781,29.461,4.544,29.461,19.723  v307.861C416.077,355.503,399.81,365.828,385.655,359.172z"/>
<path d="M96.077,224.154c-5.888,0-10.667-4.768-10.667-10.667v-64c0-5.899,4.779-10.667,10.667-10.667s10.667,4.768,10.667,10.667  v64C106.743,219.385,101.965,224.154,96.077,224.154z"/>
<path d="M138.743,224.154c-5.888,0-10.667-4.768-10.667-10.667v-64c0-5.899,4.779-10.667,10.667-10.667s10.667,4.768,10.667,10.667  v64C149.41,219.385,144.631,224.154,138.743,224.154z"/>
<circle cx="186.743" cy="154.82" r="16"/>
<circle cx="186.743" cy="208.154" r="16"/>
<path d="M469.41,181.487c0-25.749-18.357-47.296-42.667-52.256V32.004c0-10.699-5.301-20.64-14.197-26.592  s-20.107-7.061-29.995-2.997L232.034,64.399L70.989,83.343c-16.096,1.909-28.245,15.573-28.245,31.776v14.112  c-24.309,4.96-42.667,26.507-42.667,52.256s18.357,47.296,42.667,52.256v14.112c0,16.213,12.149,29.877,28.256,31.776l3.744,0.437  v157.419c0,17.643,14.357,32,32,32h50.677c9.131,0,17.845-3.915,23.915-10.731c6.069-6.827,8.939-15.936,7.872-25.013l-8.352-70.923  h21.888c5.216,0,9.664-3.776,10.517-8.917l9.408-56.427l9.088,1.067l149.355,70.283c4.352,2.037,9.013,3.061,13.643,3.061  c5.963,0,11.893-1.685,17.12-5.003c9.312-5.899,14.869-16,14.869-27.008V233.743C451.053,228.783,469.41,207.236,469.41,181.487z   M21.41,181.487c0-13.909,8.917-25.771,21.333-30.176v60.352C30.327,207.258,21.41,195.396,21.41,181.487z M64.077,247.855v-23.701  V138.82v-23.701c0-5.408,4.053-9.963,9.419-10.592L224.077,86.82v189.333l-39.52-4.651l-22.389-4.48  c-0.533-0.107-1.077-0.096-1.611-0.117c-0.16,0-0.309-0.085-0.48-0.085h-15.36l-71.211-8.373  C68.13,257.807,64.077,253.263,64.077,247.855z M165.389,444.58c-2.048,2.304-4.875,3.573-7.968,3.573h-50.677  c-5.877,0-10.667-4.779-10.667-10.667V426.82h32c5.888,0,10.667-4.768,10.667-10.667s-4.779-10.667-10.667-10.667h-32v-21.333  h21.333c5.888,0,10.667-4.768,10.667-10.667s-4.779-10.667-10.667-10.667H96.077v-21.333h32c5.888,0,10.667-4.768,10.667-10.667  s-4.779-10.667-10.667-10.667h-32v-37.568l54.613,6.421l17.323,147.232C168.375,439.311,167.437,442.266,165.389,444.58z   M201.186,296.591l-7.477,44.896h-13.717l-7.125-49.867l8.384,0.981L201.186,296.591z M405.41,339.876  c0,3.733-1.803,7.008-4.949,9.003c-3.147,2.005-6.891,2.251-10.261,0.651l-16.811-7.915c0-0.053,0.021-0.085,0.021-0.128v-160  c0-5.899-4.768-10.667-10.667-10.667s-10.667,4.768-10.667,10.667v150.091l-43.04-20.256c0.117-0.619,0.373-1.184,0.373-1.835  V234.82c0-5.899-4.768-10.667-10.667-10.667c-5.899,0-10.667,4.768-10.667,10.667v66.645l-42.667-20.075V81.967l145.269-59.819  c3.328-1.376,6.976-1.024,10.005,1.003c2.997,2.005,4.725,5.237,4.725,8.853V138.82v85.333V339.876z M426.743,211.663v-60.352  c12.416,4.405,21.333,16.267,21.333,30.176C448.077,195.396,439.159,207.258,426.743,211.663z"/>
<g>
</g>
<g>
</g>
<g>
</g>
<g>
</g>
<g>
</g>
<g>
</g>
<g>
</g>
<g>
</g>
<g>
</g>
<g>
</g>
<g>
</g>
<g>
</g>
<g>
</g>
<g>
</g>
<g>
</g>
</svg>